<svg width="57" height="64" viewBox="0 0 57 64" fill="none" xmlns="http://www.w3.org/2000/svg">
<path d="M7.43237 49.8237C10.1848 49.8237 12.3872 47.3463 12.3872 44.3182C12.3872 41.2902 10.1848 38.8127 7.43237 38.8127C4.67993 38.8127 2.47754 41.2902 2.47754 44.3182C2.47754 47.3463 4.67993 49.8237 7.43237 49.8237ZM7.43237 40.8774C9.01505 40.8774 10.3227 42.3914 10.3227 44.3182C10.3227 46.2451 9.01505 47.7591 7.43237 47.7591C5.8497 47.7591 4.54205 46.2451 4.54205 44.3182C4.54205 42.3914 5.8497 40.8774 7.43237 40.8774Z" fill="#0028FF"/>
<path d="M7.43225 51.2001C3.37216 51.2001 0 54.5032 0 58.6323V62.9679C0 63.5185 0.481953 64 1.03206 64H13.832C14.3826 64 14.8641 63.518 14.8641 62.9679V58.6323C14.8646 54.5035 11.4923 51.2001 7.43222 51.2001H7.43225ZM12.8 61.9359H2.06464V58.6328C2.06464 55.6739 4.47348 53.2651 7.43237 53.2651C10.3913 53.2651 12.8001 55.6739 12.8001 58.6328L12.8 61.9359Z" fill="#0028FF"/>
<path d="M43.7676 44.3184C43.7676 47.3464 45.97 49.8238 48.7224 49.8238C51.4749 49.8238 53.6772 47.3464 53.6772 44.3184C53.6772 41.2903 51.4749 38.8129 48.7224 38.8129C45.97 38.8133 43.7676 41.2908 43.7676 44.3184ZM48.7224 40.8775C50.3051 40.8775 51.6127 42.3915 51.6127 44.3184C51.6127 46.2452 50.3051 47.7592 48.7224 47.7592C47.1397 47.7592 45.8321 46.2452 45.8321 44.3184C45.8321 42.3915 47.1397 40.8775 48.7224 40.8775Z" fill="#0028FF"/>
<path d="M48.7223 51.2001C44.6622 51.2001 41.29 54.5032 41.29 58.6323V62.9679C41.29 63.5185 41.772 64 42.3221 64H55.1221C55.6727 64 56.1542 63.518 56.1542 62.9679V58.6323C56.1546 54.5035 52.7824 51.2001 48.7223 51.2001H48.7223ZM54.09 61.9359H43.3547V58.6328C43.3547 55.6739 45.7635 53.2651 48.7224 53.2651C51.6813 53.2651 54.0902 55.6739 54.0902 58.6328L54.09 61.9359Z" fill="#0028FF"/>
<path d="M23.1226 44.3184C23.1226 47.3464 25.325 49.8238 28.0774 49.8238C30.8298 49.8238 33.0322 47.3464 33.0322 44.3184C33.0322 41.2903 30.8298 38.8129 28.0774 38.8129C25.325 38.8133 23.1226 41.2908 23.1226 44.3184ZM30.9677 44.3184C30.9677 46.2452 29.6601 47.7592 28.0774 47.7592C26.4947 47.7592 25.1871 46.2452 25.1871 44.3184C25.1871 42.3915 26.4947 40.8775 28.0774 40.8775C29.6601 40.8775 30.9677 42.4607 30.9677 44.3184Z" fill="#0028FF"/>
<path d="M28.0773 51.2001C24.0172 51.2001 20.645 54.5032 20.645 58.6323V62.9679C20.645 63.5185 21.127 64 21.6771 64H34.4771C35.0277 64 35.5091 63.518 35.5091 62.9679V58.6323C35.5096 54.5035 32.1373 51.2001 28.0772 51.2001H28.0773ZM33.445 61.9359H22.7097V58.6328C22.7097 55.6739 25.1185 53.2651 28.0774 53.2651C31.0363 53.2651 33.4451 55.6739 33.4451 58.6328L33.445 61.9359Z" fill="#0028FF"/>
<path d="M9.01524 23.5356C8.74018 23.8106 8.60241 24.2926 8.80882 24.6368C8.94659 25.0496 9.35942 25.256 9.77224 25.256H21.4025C21.7466 25.256 22.0908 25.256 22.5036 25.1874C23.8113 30.8306 28.8348 35.028 34.8219 35.028H46.4521C46.8649 35.028 47.2778 34.7529 47.4155 34.4087C47.5533 33.9959 47.4842 33.5831 47.2091 33.3076L44.4567 30.6237C46.3836 28.3527 47.4848 25.4624 47.4848 22.4343C47.4848 15.4839 41.7729 9.77196 34.8224 9.77196C34.4782 9.77196 34.134 9.77196 33.7212 9.84061C32.4136 4.19785 27.3897 0 21.403 0C14.4526 0 8.74061 5.71182 8.74061 12.6624C8.74061 15.6904 9.77267 18.5806 11.7687 20.8517L9.01524 23.5356ZM34.7528 11.8368C40.6025 11.8368 45.3504 16.5853 45.3504 22.4344C45.3504 25.256 44.2492 27.9399 42.2538 29.9353C42.0474 30.1418 41.9787 30.4173 41.9787 30.6924C41.9787 30.9674 42.1165 31.243 42.2538 31.4494L43.9055 33.1011H34.7528C29.798 33.1011 25.6002 29.6602 24.4303 24.9809C29.9358 23.6047 33.9958 18.6497 33.9958 12.7315C33.9958 12.4564 33.9958 12.1809 33.9272 11.9745C34.2709 11.8367 34.5464 11.8367 34.7529 11.8367L34.7528 11.8368ZM24.1548 22.4344C24.1548 17.5481 27.4579 13.488 31.9312 12.2496V12.6624C31.9312 17.5487 28.6281 21.6088 24.1548 22.8472C24.2239 22.7095 24.1548 22.5722 24.1548 22.4344ZM10.8042 12.6624C10.8042 6.81265 15.5527 2.06476 21.4018 2.06476C26.3567 2.06476 30.5545 5.50562 31.7244 10.1849C26.2189 11.5612 22.1588 16.5161 22.1588 22.4344C22.1588 22.7095 22.1588 22.985 22.2275 23.1914C21.9524 23.1914 21.6769 23.26 21.4704 23.26H12.2491L13.9008 21.6083C14.1072 21.4019 14.1759 21.1264 14.1759 20.8513C14.1759 20.5762 14.0381 20.3007 13.9008 20.0943C11.9049 18.1679 10.8042 15.484 10.8042 12.6624L10.8042 12.6624Z" fill="#0028FF"/>
</svg>
