<svg width="67" height="64" viewBox="0 0 67 64" fill="none" xmlns="http://www.w3.org/2000/svg">
<path d="M10.5158 40.0609C10.4687 39.77 10.4215 39.4713 10.3822 39.1725C10.4137 39.3848 10.4372 39.5892 10.4687 39.8014C10.1857 37.5846 10.1857 35.3441 10.4687 33.1351C10.4372 33.3474 10.4137 33.5518 10.3822 33.764C10.6809 31.5392 11.2705 29.3697 12.1431 27.3021C12.0645 27.4908 11.9859 27.6795 11.9073 27.8681C12.4025 26.7047 12.9764 25.5805 13.6367 24.5036C13.959 23.9769 14.3049 23.458 14.6665 22.9627C14.753 22.8448 14.8395 22.7269 14.926 22.609C14.981 22.5382 15.0282 22.4518 15.091 22.3889C15.091 22.3889 14.698 22.8841 14.926 22.609C15.1304 22.3574 15.3348 22.098 15.547 21.8543C16.341 20.9188 17.2136 20.0305 18.1333 19.2209L18.7937 18.6549C18.9037 18.5605 19.0216 18.474 19.1317 18.3797C19.1867 18.3325 19.2496 18.2932 19.3046 18.2461C18.715 18.7177 19.0295 18.4583 19.171 18.3483C19.6663 17.9788 20.1694 17.625 20.696 17.2949C21.8988 16.5245 23.1645 15.8562 24.4773 15.2981C24.2886 15.3767 24.1 15.4553 23.9113 15.5339C24.2493 15.3924 24.5952 15.2587 24.9411 15.1251C25.5307 14.905 26.026 14.5984 26.3483 14.0403C26.647 13.5371 26.7728 12.7903 26.5841 12.2243C26.2225 11.1001 24.9175 10.1175 23.6833 10.5735C19.2182 12.2479 15.1695 14.9679 12.1037 18.6313C9.02991 22.3024 6.84451 26.7047 6.0033 31.4372C5.42157 34.731 5.42157 38.0092 5.97186 41.3109C6.06619 41.8612 6.59289 42.4508 7.05671 42.7181C7.55983 43.0168 8.30664 43.1426 8.87267 42.9539C9.44655 42.7731 9.99683 42.4194 10.2798 41.8691C10.5943 41.2873 10.6257 40.7213 10.5157 40.061L10.5158 40.0609Z" fill="#0028FF"/>
<path d="M47.495 54.2258C47.3692 54.328 47.2356 54.438 47.1098 54.5402C47.0469 54.5952 46.9762 54.6424 46.9133 54.6974C47.212 54.4695 47.2828 54.4066 47.1413 54.5166C46.8897 54.7053 46.6381 54.894 46.3866 55.0669C45.9071 55.405 45.4196 55.7273 44.9165 56.026C43.8709 56.6549 42.7861 57.2052 41.6619 57.6847C41.8505 57.6061 42.0392 57.5275 42.2279 57.4489C40.2075 58.29 38.0851 58.8717 35.9154 59.1705C36.1276 59.1391 36.332 59.1155 36.5442 59.0841C34.2566 59.3906 31.9455 59.3906 29.6579 59.0841C29.8701 59.1155 30.0745 59.1391 30.2868 59.1705C28.117 58.8718 25.9946 58.2901 23.9742 57.4489C24.1629 57.5275 24.3516 57.6061 24.5402 57.6847C23.4161 57.213 22.3313 56.6549 21.2856 56.026C20.7825 55.7273 20.2951 55.405 19.8155 55.0669C19.5797 54.9018 19.3439 54.721 19.108 54.5481C18.9115 54.3987 18.9744 54.4459 19.2888 54.6896C19.2259 54.6346 19.1552 54.5874 19.0923 54.5324C18.9587 54.4302 18.8329 54.3201 18.7071 54.2179C18.2118 53.8091 17.7087 53.5261 17.0405 53.5261C16.4588 53.5261 15.7748 53.7855 15.3739 54.2179C14.5799 55.0826 14.3598 56.7178 15.3739 57.5511C19.1708 60.6799 23.7068 62.8889 28.5886 63.6436C33.6041 64.4219 38.7846 63.9502 43.4852 61.9849C46.1737 60.8607 48.595 59.3986 50.8433 57.5511C51.2836 57.1895 51.5351 56.427 51.5351 55.8845C51.5351 55.3028 51.2757 54.6189 50.8433 54.2179C50.3952 53.8091 49.8056 53.5025 49.1767 53.5261C48.5007 53.5654 47.9975 53.8091 47.4944 54.2258H47.495Z" fill="#0028FF"/>
<path d="M41.245 15.1249C41.5909 15.2507 41.9289 15.3922 42.2748 15.5337C42.0862 15.4551 41.8975 15.3765 41.7088 15.2979C42.8723 15.7932 43.9964 16.367 45.0734 17.0273C45.6001 17.3496 46.1189 17.6955 46.6142 18.0572C46.7322 18.1436 46.8501 18.2301 46.968 18.3166C47.0387 18.3716 47.1252 18.4188 47.1881 18.4817C47.1881 18.4817 46.6928 18.0886 46.968 18.3166C47.2195 18.521 47.479 18.7254 47.7227 18.9376C48.6581 19.7316 49.5465 20.6042 50.3561 21.5239C50.5448 21.744 50.7335 21.9641 50.9221 22.1843C51.0165 22.2943 51.1029 22.4122 51.1973 22.5223C51.2444 22.5773 51.2838 22.6402 51.3309 22.6953C50.8593 22.1057 51.1187 22.4201 51.2287 22.5616C51.5982 23.0569 51.9519 23.56 52.2821 24.0866C53.0525 25.2894 53.7208 26.5551 54.2789 27.8679C54.2003 27.6792 54.1217 27.4906 54.0431 27.3019C54.9157 29.3694 55.5053 31.5469 55.804 33.7638C55.7726 33.5515 55.749 33.3472 55.7175 33.1349C56.0084 35.3518 56.0084 37.5922 55.7175 39.8012C55.749 39.589 55.7726 39.3846 55.804 39.1723C55.7647 39.471 55.7175 39.7619 55.6704 40.0606C55.5603 40.7053 55.5682 41.2948 55.9062 41.8766C56.1892 42.364 56.7552 42.8357 57.3134 42.9614C58.4532 43.2209 60.0019 42.6156 60.2142 41.3106C60.7173 38.284 60.7409 35.3125 60.3164 32.2781C59.9705 29.8568 59.2473 27.5615 58.2804 25.321C56.4016 20.9502 53.2963 17.2397 49.5229 14.3703C47.3847 12.7431 45.0105 11.5166 42.5029 10.5733C41.9604 10.369 41.1664 10.5262 40.6869 10.8092C40.1995 11.0922 39.7278 11.6582 39.602 12.2163C39.2954 13.5606 40.0108 14.6612 41.2451 15.1249L41.245 15.1249Z" fill="#0028FF"/>
<path d="M39.6568 11.2797C39.6568 11.6649 39.6332 12.0501 39.586 12.4274C39.6174 12.2152 39.641 12.0108 39.6725 11.7985C39.5624 12.5847 39.3659 13.3471 39.0593 14.0861C39.1379 13.8975 39.2165 13.7088 39.2951 13.5201C39.075 14.039 38.8077 14.5421 38.4933 15.0138C38.4147 15.1317 38.3361 15.2418 38.2496 15.3597C38.0216 15.682 38.6662 14.8487 38.2968 15.2968C38.116 15.5091 37.9273 15.7213 37.7308 15.9178C37.5342 16.1144 37.322 16.303 37.1097 16.4838C36.6616 16.8533 37.4949 16.2166 37.1726 16.4367C37.0547 16.5153 36.9446 16.6018 36.8267 16.6804C36.3551 16.9948 35.8519 17.2542 35.333 17.4743L35.8991 17.2385C35.1915 17.5294 34.4604 17.7259 33.7057 17.836C33.918 17.8045 34.1224 17.7809 34.3346 17.7495C33.5171 17.8595 32.6995 17.8595 31.882 17.7495C32.0943 17.7809 32.2987 17.8045 32.5109 17.836C31.7562 17.7259 31.0251 17.5294 30.3176 17.2385L30.8836 17.4743C30.3648 17.2542 29.8616 16.987 29.3899 16.6804C29.272 16.6018 29.162 16.5231 29.044 16.4367C28.7217 16.2087 29.555 16.8533 29.1069 16.4838C28.8868 16.303 28.6824 16.1144 28.4859 15.9178C28.2894 15.7213 28.1007 15.509 27.9199 15.2968C27.5504 14.8487 28.195 15.682 27.967 15.3597C27.8884 15.2418 27.802 15.1317 27.7234 15.0138C27.4089 14.5421 27.1416 14.039 26.9215 13.5201C27.0001 13.7088 27.0787 13.8975 27.1573 14.0861C26.8586 13.3472 26.6542 12.5924 26.5442 11.7985C26.5756 12.0108 26.5992 12.2152 26.6306 12.4274C26.5363 11.6413 26.5363 10.8551 26.6385 10.0769C26.6071 10.2891 26.5835 10.4935 26.552 10.7058C26.6621 9.93536 26.8665 9.18074 27.1652 8.4574L26.9294 9.02341C27.1495 8.51243 27.4089 8.02504 27.7155 7.56121C27.7941 7.44329 27.8727 7.33324 27.9513 7.22317C28.1321 6.96375 27.7705 7.45114 27.7705 7.45114C27.7784 7.41183 27.8727 7.32536 27.8963 7.29391C28.085 7.06594 28.2815 6.85368 28.4859 6.64929C28.6824 6.45275 28.8868 6.27195 29.0912 6.09114C29.1462 6.04398 29.2013 6.00467 29.2484 5.9575C29.4528 5.78456 28.7925 6.28768 29.0205 6.13831C29.1384 6.05969 29.2406 5.98108 29.3585 5.90247C29.838 5.58016 30.3412 5.31288 30.8679 5.09277C30.6792 5.17139 30.4905 5.25 30.3019 5.32861C31.0251 5.02988 31.772 4.82549 32.5502 4.71544C32.338 4.74688 32.1336 4.77046 31.9213 4.80191C32.7232 4.69971 33.525 4.69971 34.3268 4.80191C34.1145 4.77046 33.9102 4.74688 33.6979 4.71544C34.4683 4.82549 35.2229 5.02988 35.9463 5.32861C35.7576 5.24999 35.5689 5.17137 35.3803 5.09277C35.8912 5.31288 36.3786 5.5723 36.8425 5.8789C36.9604 5.95751 37.0704 6.03613 37.1805 6.11473C37.4399 6.29554 36.9525 5.93393 36.9525 5.93393C36.9918 5.94179 37.0783 6.03612 37.1098 6.05971C37.3377 6.24837 37.55 6.44491 37.7544 6.6493C37.9509 6.84583 38.1317 7.05023 38.3125 7.25461C38.3597 7.30964 38.399 7.36466 38.4462 7.41184C38.6191 7.61623 38.116 6.95589 38.2654 7.18387C38.344 7.30179 38.4226 7.40398 38.5012 7.52191C38.8235 8.00144 39.0908 8.50455 39.3109 9.03126C39.2323 8.84259 39.1537 8.65392 39.0751 8.46525C39.3738 9.18847 39.5782 9.93536 39.6882 10.7136C39.6568 10.5014 39.6332 10.297 39.6018 10.0847C39.6254 10.4778 39.6489 10.8708 39.6568 11.2796C39.6647 12.5138 40.7338 13.693 42.0151 13.6379C43.2887 13.5829 44.3814 12.6003 44.3735 11.2796C44.3577 9.07855 43.721 6.82229 42.4632 5.00632C41.1032 3.041 39.2872 1.62595 37.0703 0.737734C32.9117 -0.928876 27.8334 0.313233 24.8305 3.60708C23.3683 5.21073 22.2992 7.23901 21.9847 9.40083C21.6152 11.9715 21.9847 14.5342 23.2582 16.8139C24.3116 18.7085 26.0018 20.3514 27.9436 21.3184C30.2076 22.4347 32.621 22.757 35.1051 22.3718C39.5074 21.68 43.2964 17.9538 44.122 13.5908C44.2635 12.8361 44.3578 12.0579 44.3657 11.2875C44.3735 10.0533 43.2729 8.87416 42.0073 8.92921C40.7259 8.97638 39.6647 9.95117 39.6568 11.2798L39.6568 11.2797Z" fill="#0028FF"/>
<path d="M60.6075 52.347C60.4738 52.5671 60.3402 52.7872 60.1908 52.9995C60.128 53.086 60.0651 53.1724 60.0022 53.2668C60.4345 52.6536 60.2223 52.9916 60.1044 53.1253C59.7978 53.4948 59.4597 53.8328 59.106 54.1472C59.051 54.2023 58.9016 54.3752 58.823 54.3831C58.9252 54.3752 59.3418 53.9979 58.9645 54.2652C58.7837 54.3988 58.595 54.5246 58.3985 54.6425C57.9975 54.8862 57.5888 55.0984 57.1564 55.2792C57.3451 55.2006 57.5338 55.122 57.7224 55.0434C56.9913 55.3421 56.2287 55.5465 55.4427 55.6566C55.655 55.6251 55.8594 55.6016 56.0716 55.5701C55.2776 55.6723 54.4836 55.6644 53.6897 55.5622C53.902 55.5937 54.1064 55.6173 54.3186 55.6487C53.5404 55.5387 52.7936 55.3264 52.0703 55.0277C52.2589 55.1063 52.4476 55.1849 52.6363 55.2635C52.1253 55.0434 51.63 54.7761 51.1584 54.4695C51.0798 54.4145 51.0012 54.3595 50.9226 54.3045C50.7182 54.1551 50.7653 54.1944 51.0562 54.4145C50.9855 54.3202 50.8361 54.2416 50.7496 54.163C50.5452 53.99 50.3566 53.8014 50.1679 53.6127C49.9871 53.424 49.8141 53.2196 49.6412 53.0152C49.3582 52.6772 49.9792 53.4948 49.7355 53.1332C49.649 53.0074 49.5626 52.8895 49.484 52.7637C49.2009 52.3235 48.9572 51.8675 48.7529 51.388L48.9887 51.954C48.6743 51.1993 48.462 50.4132 48.3519 49.6034C48.3834 49.8157 48.407 50.0201 48.4384 50.2323C48.3441 49.4541 48.3441 48.6679 48.4463 47.8897C48.4148 48.1019 48.3912 48.3063 48.3598 48.5186C48.4699 47.7246 48.69 46.9542 48.9966 46.2074C48.918 46.3961 48.8393 46.5847 48.7607 46.7734C48.9966 46.2388 49.2717 45.7279 49.6019 45.2405C49.6805 45.1226 49.767 44.9732 49.8692 44.871C49.7906 44.9732 49.7119 45.0675 49.6412 45.1697C49.6884 45.1147 49.7355 45.0518 49.7827 44.9968C49.9635 44.7845 50.1522 44.5801 50.3487 44.3836C50.5452 44.1949 50.7496 44.0141 50.9619 43.8333C51.2921 43.5503 50.4745 44.1792 50.8282 43.9355C50.9462 43.849 51.0641 43.7704 51.182 43.684C51.6301 43.3852 52.1096 43.1337 52.597 42.9214C52.4083 43 52.2197 43.0787 52.031 43.1573C52.7935 42.8349 53.5796 42.6227 54.3972 42.5048C54.185 42.5362 53.9806 42.5598 53.7683 42.5912C54.5545 42.4891 55.3484 42.4969 56.1346 42.5991C55.9223 42.5677 55.7179 42.5441 55.5057 42.5126C56.2682 42.6227 56.9994 42.8271 57.7146 43.1179L57.1486 42.8821C57.7382 43.1337 58.3042 43.4403 58.8309 43.8097C58.9882 43.9198 59.3812 44.2814 58.7916 43.7626C58.9017 43.8569 59.0117 43.9434 59.1218 44.0377C59.3183 44.2107 59.5148 44.3993 59.6957 44.588C59.8765 44.7767 60.0415 44.9889 60.2145 45.1854C59.6878 44.5958 60.0416 44.9653 60.1595 45.1225C60.2302 45.2247 60.301 45.3191 60.3639 45.4213C60.6547 45.8694 60.8984 46.3489 61.1107 46.8363L60.8748 46.2703C61.1736 47.0014 61.378 47.764 61.488 48.55C61.4566 48.3377 61.433 48.1333 61.4015 47.9211C61.5037 48.7151 61.4959 49.5091 61.3937 50.303C61.4251 50.0907 61.4487 49.8863 61.4802 49.6741C61.3701 50.4523 61.1578 51.1991 60.8591 51.9224L61.095 51.3564C60.9456 51.7023 60.7884 52.0246 60.6076 52.3469C59.9944 53.4161 60.3167 54.9726 61.4566 55.57C62.5729 56.1596 64.0351 55.8688 64.6797 54.721C66.8415 50.9241 66.6922 45.9557 64.0272 42.4339C62.4864 40.4058 60.4188 38.8885 57.9426 38.1967C55.828 37.6071 53.4538 37.6464 51.3785 38.3618C49.0515 39.1636 47.1413 40.6179 45.6949 42.599C44.327 44.47 43.6117 46.8912 43.6509 49.2025C43.7374 54.1471 47.1098 58.5731 51.8817 59.9252C56.048 61.0965 60.867 59.6894 63.5791 56.2776C63.9801 55.7745 64.3574 55.2714 64.6876 54.7132C65.3086 53.6441 64.9706 52.0797 63.8386 51.4901C62.6987 50.9005 61.2679 51.2071 60.6075 52.3469L60.6075 52.347Z" fill="#0028FF"/>
<path d="M15.3574 54.2258C15.3181 54.2572 14.9486 54.5559 15.2631 54.3044C15.5697 54.0685 15.2238 54.328 15.153 54.3751C14.9565 54.5166 14.7521 54.6424 14.5398 54.7603C14.2254 54.9411 13.8952 55.1062 13.5572 55.2477C13.7459 55.1691 13.9345 55.0905 14.1232 55.0119C13.4 55.3106 12.6531 55.5229 11.8749 55.6329C12.0871 55.6015 12.2915 55.5779 12.5038 55.5464C11.7098 55.6486 10.9158 55.6565 10.1219 55.5543C10.3341 55.5857 10.5385 55.6093 10.7507 55.6408C9.96462 55.5307 9.20216 55.3263 8.47105 55.0276C8.65972 55.1062 8.84839 55.1848 9.03706 55.2634C8.52608 55.0512 8.03869 54.7918 7.57486 54.493C7.45694 54.4144 7.34689 54.3358 7.22897 54.2572C6.75731 53.9192 7.59059 54.5638 7.29186 54.3044C7.08747 54.1314 6.89094 53.9585 6.70227 53.7777C6.5136 53.589 6.33279 53.4003 6.15985 53.1959C6.03407 53.0466 5.75106 52.6063 6.1913 53.251C6.11268 53.133 6.01835 53.0151 5.93974 52.8972C5.60956 52.4098 5.33443 51.8988 5.09858 51.3564C5.1772 51.5451 5.25582 51.7337 5.33442 51.9224C5.03569 51.1992 4.82344 50.4523 4.71338 49.674C4.74483 49.8863 4.76841 50.0907 4.79986 50.3029C4.69766 49.509 4.6898 48.7149 4.792 47.921C4.76055 48.1333 4.73697 48.3377 4.70552 48.5499C4.81558 47.7638 5.01997 47.0013 5.31869 46.2702C5.24008 46.4589 5.16146 46.6476 5.08286 46.8362C5.28725 46.3567 5.52309 45.9008 5.79823 45.4605C5.86898 45.3426 5.9476 45.2247 6.03407 45.1146C6.15199 44.9496 6.50573 44.5879 5.97904 45.1775C6.15198 44.981 6.31708 44.7766 6.49788 44.5801C6.67869 44.3914 6.87522 44.2027 7.07175 44.0298C7.18181 43.9355 7.29186 43.849 7.40192 43.7547C6.82806 44.2578 7.15823 43.9433 7.31545 43.8333C7.85787 43.4481 8.4396 43.1336 9.04488 42.8742C8.85621 42.9528 8.66754 43.0314 8.47887 43.11C9.19425 42.8192 9.92526 42.6148 10.6878 42.5047C10.4756 42.5362 10.2712 42.5598 10.0589 42.5912C10.8451 42.489 11.639 42.489 12.4252 42.5833C12.2129 42.5519 12.0085 42.5283 11.7963 42.4969C12.6138 42.6069 13.4078 42.827 14.1625 43.1493L13.5965 42.9135C14.0918 43.1258 14.5634 43.3852 15.0115 43.6761C15.1294 43.7547 15.2474 43.8411 15.3653 43.9276C15.6876 44.1556 14.9093 43.5503 15.2316 43.8254C15.4439 44.0062 15.6483 44.1792 15.8448 44.3757C16.0413 44.5722 16.23 44.7766 16.4108 44.9889C16.5287 45.1225 16.7331 45.4605 16.3243 44.8631C16.4108 44.9889 16.5051 45.1068 16.5916 45.2326C16.9218 45.7121 17.1969 46.2309 17.4328 46.7655L17.1969 46.1995C17.5114 46.9384 17.7236 47.7088 17.8337 48.5107C17.8023 48.2984 17.7787 48.094 17.7472 47.8818C17.8494 48.66 17.8494 49.4383 17.7551 50.2244C17.7865 50.0122 17.8101 49.8078 17.8416 49.5955C17.7315 50.4052 17.5193 51.1914 17.2048 51.9461C17.2834 51.7574 17.362 51.5687 17.4406 51.3801C17.1734 52.0011 16.8432 52.575 16.458 53.1253C16.2772 53.3847 16.5916 52.9445 16.6231 52.9209C16.568 52.9681 16.5287 53.0388 16.4816 53.0939C16.3715 53.2275 16.2615 53.3533 16.1435 53.4791C15.8998 53.7385 15.6326 53.99 15.3574 54.2259C14.4141 55.0277 14.4691 56.7494 15.3574 57.5591C16.3636 58.4789 17.6844 58.416 18.6906 57.5591C22.1968 54.564 23.541 49.2733 21.7644 44.9968C20.8053 42.6936 19.2645 40.7518 17.1185 39.439C15.2633 38.2991 12.9834 37.7016 10.8059 37.8118C5.98708 38.0555 1.74983 41.3415 0.42131 45.9953C-0.828619 50.3661 0.767195 55.1929 4.35194 57.9679C7.92091 60.7272 12.8734 61.1124 16.8198 58.8955C17.4879 58.5182 18.1011 58.0544 18.6908 57.5591C19.131 57.1975 19.3826 56.4428 19.3826 55.8925C19.3826 55.3108 19.1231 54.6269 18.6908 54.2259C18.2427 53.8171 17.6531 53.5105 17.0242 53.5341C16.3638 53.5656 15.8607 53.8014 15.3576 54.2259L15.3574 54.2258Z" fill="#0028FF"/>
</svg>
