<svg width="37" height="64" viewBox="0 0 37 64" fill="none" xmlns="http://www.w3.org/2000/svg">
<path d="M0.000267118 45.753C0.000267118 55.8427 8.22903 64 18.2472 64C28.2649 64 36.4942 55.7712 36.4942 45.753C36.4942 35.9499 28.7661 28.007 19.1059 27.5061L19.1054 11.8352C20.1072 11.9784 20.9658 12.0498 21.8247 12.0498C32.8442 12.0498 35.1342 1.7455 35.1342 1.60226C35.2056 1.10112 34.9196 0.671871 34.4903 0.529115C21.0377 -2.69081 17.3883 9.83161 17.3167 9.97486V10.1895V16.7727C15.0986 13.3381 10.519 8.90121 1.93204 10.9767C1.71741 11.0481 1.50278 11.1914 1.35952 11.406C1.21627 11.6206 1.21627 11.9071 1.28815 12.1218C1.28815 12.265 4.65131 22.4974 14.6693 22.4974C15.5278 22.4974 16.3867 22.426 17.3167 22.2827V27.4348C7.65631 27.9355 0 35.9502 0 45.7533L0.000267118 45.753ZM33.2026 2.10345C32.4154 4.60819 29.1955 11.4773 19.249 10.0462C19.9648 7.97085 23.3993 0.242594 33.2026 2.10345ZM3.36343 12.5505C13.0951 10.7616 16.5299 18.5611 17.2454 20.4933C8.30085 22.1389 4.50834 15.1265 3.36343 12.5505ZM34.7053 45.7528C34.7053 54.8406 27.3349 62.2108 18.2472 62.2108C9.15952 62.2108 1.78918 54.8405 1.78918 45.7528C1.78918 36.665 9.15952 29.2947 18.2472 29.2947C27.3349 29.2947 34.7053 36.6651 34.7053 45.7528Z" fill="#0028FF"/>
<path d="M17.6035 33.159V36.0211C15.7432 36.0924 13.9543 36.8082 12.7379 38.0246C11.1637 39.5276 10.7344 41.8885 11.5929 43.6061C12.6661 45.681 15.0993 46.6828 17.0311 46.9692C17.1744 46.9692 17.389 47.0406 17.6036 47.0406V54.3395C17.4604 54.3395 17.2457 54.3395 17.1025 54.2681C15.6715 53.9821 13.4532 52.9084 13.4532 50.9763H11.6643C11.6643 53.6238 14.2403 55.5559 16.7451 55.9851C17.0311 56.0565 17.3176 56.0565 17.5322 56.1284V58.8477H19.3211V56.1284C20.9668 55.9137 22.4698 55.2699 23.6148 54.268C25.189 52.7651 25.6897 50.4042 24.8312 48.6866C24.1873 47.3269 22.6844 45.8246 19.3212 45.4667L19.3207 37.8818C20.7517 38.1678 22.8985 39.2415 22.8985 41.0304H24.6875C24.6875 38.383 22.1114 36.5222 19.5354 36.0929H19.3207V33.1589L17.6035 33.159ZM17.2457 45.1803C15.8146 45.0371 13.9538 44.2499 13.1667 42.8189C12.6655 41.8172 12.952 40.2429 13.9538 39.3125C14.8842 38.454 16.1719 37.8815 17.6031 37.8096V45.2512C17.4603 45.2522 17.3171 45.1804 17.2457 45.1804L17.2457 45.1803ZM23.3282 49.474C23.8294 50.5471 23.4715 52.05 22.4697 52.9804C21.6826 53.6962 20.6094 54.1968 19.393 54.3401V47.2558C20.9668 47.3986 22.5411 47.9711 23.3283 49.474H23.3282Z" fill="#0028FF"/>
</svg>
