<svg width="63" height="64" viewBox="0 0 63 64" fill="none" xmlns="http://www.w3.org/2000/svg">
<path d="M5.05866 62.381C4.83667 63.047 5.20683 63.7129 5.8728 63.9355C6.53876 64.1575 7.20471 63.7873 7.42726 63.1213L13.2738 45.729H10.6094L5.05866 62.381Z" fill="#0028FF"/>
<path d="M37.0308 0.87865C36.8088 0.21268 36.1428 -0.157462 35.4763 0.064515C34.8103 0.286505 34.4402 0.952475 34.6622 1.61899L36.2166 6.20747H38.8072L37.0308 0.87865Z" fill="#0028FF"/>
<path d="M55.2376 63.1211C55.4596 63.7871 56.1256 64.1573 56.7921 63.9353C57.458 63.7133 57.8282 63.0473 57.6062 62.3808L52.0555 45.7286H49.4648L55.2376 63.1211Z" fill="#0028FF"/>
<path d="M27.9272 1.69272C28.1492 1.02675 27.7791 0.360809 27.1131 0.138251C26.4471 -0.0837395 25.7812 0.286415 25.5586 0.952386L23.7822 6.35498H26.3728L27.9272 1.69272Z" fill="#0028FF"/>
<path d="M62.1202 45.0627H0.543945V7.02161H62.1202V45.0627ZM1.95013 43.5826H60.714V8.42793H1.95013V43.5826Z" fill="#0028FF"/>
<path d="M37.8447 13.7565H54.793V15.1629H37.8447V13.7565Z" fill="#0028FF"/>
<path d="M37.8447 19.6773H51.9067V21.0836H37.8447V19.6773Z" fill="#0028FF"/>
<path d="M37.8447 25.524H54.793V26.9304H37.8447V25.524Z" fill="#0028FF"/>
<path d="M37.8447 31.3709H51.9067V32.7772H37.8447V31.3709Z" fill="#0028FF"/>
<path d="M37.8447 37.2917H54.793V38.698H37.8447V37.2917Z" fill="#0028FF"/>
<path d="M26.9655 22.5637L23.1169 24.0438C23.3389 24.6359 23.487 25.3757 23.487 26.0422C23.487 29.2243 20.8964 31.7411 17.7881 31.7411C14.6797 31.7405 12.0892 29.1504 12.0892 25.9678C12.0892 22.7856 14.6798 20.2689 17.7881 20.2689V16.1982C12.3855 16.1982 8.01855 20.5646 8.01855 25.9678C8.01855 31.3703 12.385 35.7373 17.7881 35.7373C23.265 35.7373 27.6314 31.3709 27.6314 25.9678C27.6314 24.784 27.4095 23.5997 26.9655 22.5636L26.9655 22.5637Z" fill="#0028FF"/>
</svg>
